<?xml version="1.0" encoding="iso-8859-1"?>
<!-- Generator: Adobe Illustrator 19.0.0, SVG Export Plug-In . SVG Version: 6.00 Build 0)  -->
<svg version="1.1" id="Capa_1" xmlns="http://www.w3.org/2000/svg" xmlns:xlink="http://www.w3.org/1999/xlink" x="0px" y="0px"
	 viewBox="0 0 512 512" style="enable-background:new 0 0 512 512;" xml:space="preserve">
<path style="fill:#95ADC0;" d="M362.667,458.667v32c0,5.891-4.776,10.667-10.667,10.667H160c-5.891,0-10.667-4.776-10.667-10.667
	v-32H362.667z"/>
<path style="fill:#D9EEF7;" d="M181.333,373.333h149.333v85.333H181.333V373.333z"/>
<path style="fill:#FFE451;" d="M448,256v32H64v-32V64h384V256z"/>
<path style="fill:#D9EEF7;" d="M501.333,32v256H448V64H64v224H10.667V32C10.702,20.233,20.233,10.702,32,10.667h448
	C491.768,10.702,501.298,20.233,501.333,32z"/>
<g>
	<path style="fill:#AAC4DA;" d="M501.333,288v64c-0.035,11.768-9.566,21.298-21.333,21.333H32
		c-11.767-0.035-21.298-9.566-21.333-21.333v-64H501.333z"/>
	<path style="fill:#AAC4DA;" d="M320,234.667H192c0-35.346,28.654-64,64-64S320,199.32,320,234.667z"/>
</g>
<path style="fill:#D9EEF7;" d="M277.333,74.667c0,23.564,19.103,42.667,42.667,42.667v117.333c0-35.346-28.654-64-64-64
	s-64,28.654-64,64V117.333c23.564,0,42.667-19.103,42.667-42.667H277.333z"/>
<path style="fill:#31E8BB;" d="M362.667,53.333v181.333H320V117.333c-23.564,0-42.667-19.103-42.667-42.667h-42.667
	c0,23.564-19.103,42.667-42.667,42.667v117.333h-42.667V53.333c0.035-11.767,9.566-21.298,21.333-21.333h170.667
	C353.101,32.035,362.632,41.566,362.667,53.333z"/>
<g>
	<path style="fill:#4C5B66;" d="M42.667,277.333h426.667v21.333H42.667V277.333z"/>
	<path style="fill:#4C5B66;" d="M480,0h-96v21.333h96c5.891,0,10.667,4.776,10.667,10.667v320c0,5.891-4.776,10.667-10.667,10.667
		H32c-5.891,0-10.667-4.776-10.667-10.667V32c0-5.891,4.776-10.667,10.667-10.667h96V0H32C14.327,0,0,14.327,0,32v320
		c0,17.673,14.327,32,32,32h138.667v64h-21.333c-5.891,0-10.667,4.776-10.667,10.667v32h-21.333V512h277.333v-21.333h-21.333v-32
		c0-5.891-4.776-10.667-10.667-10.667h-21.333v-64H480c17.673,0,32-14.327,32-32V32C512,14.327,497.673,0,480,0z M352,490.667H160
		v-21.333h192V490.667z M320,448H192v-64h128V448z"/>
	<path style="fill:#4C5B66;" d="M448,53.333h-53.333v21.333h42.667V256h21.333V64C458.667,58.109,453.891,53.333,448,53.333z"/>
	<path style="fill:#4C5B66;" d="M117.333,74.667V53.333H64c-5.891,0-10.667,4.776-10.667,10.667v192h21.333V74.667H117.333z"/>
	<path style="fill:#4C5B66;" d="M181.333,64h21.333v21.333h-21.333V64z"/>
	<path style="fill:#4C5B66;" d="M309.333,64h21.333v21.333h-21.333V64z"/>
	<path style="fill:#4C5B66;" d="M106.667,224v21.333h298.667V224h-32V53.333c0-17.673-14.327-32-32-32H170.667
		c-17.673,0-32,14.327-32,32V224H106.667z M309.333,182.517c-28.666-29.455-75.783-30.095-105.238-1.429
		c-0.483,0.47-0.959,0.946-1.429,1.429v-55.584c20.934-4.307,37.293-20.666,41.6-41.6h23.467c4.307,20.934,20.666,37.293,41.6,41.6
		V182.517z M308.267,224H203.733c5.862-28.866,34.014-47.515,62.88-41.653C287.602,186.608,304.005,203.012,308.267,224L308.267,224
		z M160,53.333c0-5.891,4.776-10.667,10.667-10.667h170.667c5.891,0,10.667,4.776,10.667,10.667V224h-21.333V117.333
		c0-5.891-4.776-10.667-10.667-10.667c-17.673,0-32-14.327-32-32C288,68.776,283.224,64,277.333,64h-42.667
		C228.776,64,224,68.776,224,74.667c0,17.673-14.327,32-32,32c-5.891,0-10.667,4.776-10.667,10.667V224H160V53.333z"/>
</g>
<g>
</g>
<g>
</g>
<g>
</g>
<g>
</g>
<g>
</g>
<g>
</g>
<g>
</g>
<g>
</g>
<g>
</g>
<g>
</g>
<g>
</g>
<g>
</g>
<g>
</g>
<g>
</g>
<g>
</g>
</svg>
