<svg id="FilledOutline" height="512" viewBox="0 0 512 512" width="512" xmlns="http://www.w3.org/2000/svg"><circle cx="256" cy="256" fill="#ef5249" r="56"/><path d="m240 456v-40l-43.029-43.029a16.972 16.972 0 0 1 -4.971-12 16.971 16.971 0 0 1 16.971-16.971 16.972 16.972 0 0 1 12 4.971l19.029 19.029v-112a16 16 0 0 1 16-16 16 16 0 0 1 16 16v64h34.745a45.255 45.255 0 0 1 45.255 45.255 45.255 45.255 0 0 1 -13.255 32l-18.745 18.745v40z" fill="#f5be9a"/><path d="m224 440h112v56h-112z" fill="#0093ba"/><path d="m40 24h64v48h-64z" fill="#0093ba"/><path d="m120 104h-96l16-32h64z" fill="#ccdce5"/><path d="m40 208h64v48h-64z" fill="#0093ba"/><path d="m120 288h-96l16-32h64z" fill="#ccdce5"/><path d="m40 392h64v48h-64z" fill="#0093ba"/><path d="m120 472h-96l16-32h64z" fill="#ccdce5"/><path d="m408 24h64v48h-64z" fill="#0093ba" transform="matrix(-1 0 0 -1 880 96)"/><path d="m392 104h96l-16-32h-64z" fill="#ccdce5"/><path d="m408 208h64v48h-64z" fill="#0093ba" transform="matrix(-1 0 0 -1 880 464)"/><path d="m392 288h96l-16-32h-64z" fill="#ccdce5"/><path d="m408 392h64v48h-64z" fill="#0093ba" transform="matrix(-1 0 0 -1 880 832)"/><path d="m392 472h96l-16-32h-64z" fill="#ccdce5"/><path d="m224 24h64v48h-64z" fill="#0093ba"/><path d="m304 104h-96l16-32h64z" fill="#ccdce5"/><path d="m306.745 312h-26.745v-56a24 24 0 0 0 -48 0v92.687l-5.372-5.374a24.971 24.971 0 0 0 -35.315 35.315l40.687 40.685v12.687h-8a8 8 0 0 0 -8 8v56h16v-48h96v48h16v-56a8 8 0 0 0 -8-8h-8v-12.687l16.4-16.4a53.255 53.255 0 0 0 -37.655-90.913zm26.343 79.6-18.745 18.745a8 8 0 0 0 -2.343 5.655v16h-64v-16a8 8 0 0 0 -2.343-5.657l-43.029-43.03a8.97 8.97 0 1 1 12.685-12.685l19.03 19.029a8 8 0 0 0 13.657-5.657v-112a8 8 0 0 1 16 0v64a8 8 0 0 0 8 8h34.745a37.255 37.255 0 0 1 26.343 63.6z"/><path d="m296 464h16v16h-16z"/><path d="m192 256a63.523 63.523 0 0 0 19.212 45.718l11.2-11.43a48 48 0 1 1 67.182 0l11.2 11.43a64 64 0 1 0 -108.794-45.718z"/><path d="m488 296a8 8 0 0 0 7.155-11.578l-15.155-30.311v-46.111a8 8 0 0 0 -8-8h-24v-88h40a8 8 0 0 0 7.155-11.578l-15.155-30.311v-46.111a8 8 0 0 0 -8-8h-64a8 8 0 0 0 -8 8v16h-104v-16a8 8 0 0 0 -8-8h-64a8 8 0 0 0 -8 8v16h-104v-16a8 8 0 0 0 -8-8h-64a8 8 0 0 0 -8 8v46.111l-15.155 30.311a8 8 0 0 0 7.155 11.578h40v88h-24a8 8 0 0 0 -8 8v46.111l-15.155 30.311a8 8 0 0 0 7.155 11.578h40v88h-24a8 8 0 0 0 -8 8v46.111l-15.155 30.311a8 8 0 0 0 7.155 11.578h96a8 8 0 0 0 7.155-11.578l-15.155-30.311v-46.111a8 8 0 0 0 -8-8h-24v-88h40a8 8 0 0 0 7.155-11.578l-15.155-30.311v-46.111a8 8 0 0 0 -8-8h-24v-88h40a8 8 0 0 0 7.155-11.578l-15.155-30.311v-14.111h104v14.111l-15.155 30.311a8 8 0 0 0 7.155 11.578h96a8 8 0 0 0 7.155-11.578l-15.155-30.311v-14.111h104v14.111l-15.155 30.311a8 8 0 0 0 7.155 11.578h40v88h-24a8 8 0 0 0 -8 8v46.111l-15.155 30.311a8 8 0 0 0 7.155 11.578h40v88h-24a8 8 0 0 0 -8 8v46.111l-15.155 30.311a8 8 0 0 0 7.155 11.578h96a8 8 0 0 0 7.155-11.578l-15.155-30.311v-46.111a8 8 0 0 0 -8-8h-24v-88zm-451.056 168 8-16h54.112l8 16zm59.056-32h-48v-32h48zm-59.056-152 8-16h54.112l8 16zm59.056-32h-48v-32h48zm-48-216h48v32h-48zm-11.056 64 8-16h54.112l8 16zm195.056-64h48v32h-48zm-11.056 64 8-16h54.112l8 16zm195.056-64h48v32h-48zm-3.056 48h54.112l8 16h-70.112zm-8 384 8-16h54.112l8 16zm59.056-32h-48v-32h48zm-48-216h48v32h-48zm-3.056 48h54.112l8 16h-70.112z"/><path d="m248 128h16v48h-16z"/><path d="m128 248h48v16h-48z"/><path d="m336 248h48v16h-48z"/></svg>