<svg id="Layer_35" enable-background="new 0 0 64 64" height="512" viewBox="0 0 64 64" width="512" xmlns="http://www.w3.org/2000/svg"><path d="m5 2h14v14l1.57 2.09c-4.01 3.31-6.57 8.31-6.57 13.91v10c0 .55-.22 1.05-.59 1.41-.36.37-.86.59-1.41.59-1.1 0-2-.9-2-2v-2c0 .55-.22 1.05-.59 1.41-.36.37-.86.59-1.41.59-1.1 0-2-.9-2-2v-12c0 1.66-1.34 3-3 3h-1v-11.67c0-.86.28-1.7.8-2.4l2.2-2.93z" fill="#f0d0b4"/><path d="m58 36c0-1.66 1.34-3 3-3h1v11.67c0 .86-.28 1.7-.8 2.4l-2.2 2.93v12h-14v-14l-1.57-2.09c4.01-3.31 6.57-8.31 6.57-13.91v-10c0-.55.22-1.05.59-1.41.36-.37.86-.59 1.41-.59 1.1 0 2 .9 2 2v2c0-.55.22-1.05.59-1.41.36-.37.86-.59 1.41-.59 1.1 0 2 .9 2 2z" fill="#f0d0b4"/><circle cx="39" cy="56" fill="#ff826e" r="2"/><circle cx="25" cy="8" fill="#ff826e" r="2"/><path d="m32 14c9.94 0 18 8.06 18 18 0 5.6-2.56 10.6-6.57 13.91-3.11 2.55-7.09 4.09-11.43 4.09-9.94 0-18-8.06-18-18 0-5.6 2.56-10.6 6.57-13.91 3.11-2.55 7.09-4.09 11.43-4.09z" fill="#ffc729"/><circle cx="32" cy="32" fill="#fcd770" r="14"/><path d="m48 57h2v2h-2z"/><path d="m48 53h2v2h-2z"/><path d="m48 49h2v2h-2z"/><path d="m14 5h2v2h-2z"/><path d="m14 9h2v2h-2z"/><path d="m14 13h2v2h-2z"/><path d="m32 17c-8.271 0-15 6.729-15 15s6.729 15 15 15 15-6.729 15-15-6.729-15-15-15zm0 28c-7.168 0-13-5.832-13-13s5.832-13 13-13 13 5.832 13 13-5.832 13-13 13z"/><path d="m32 27c1.103 0 2 .897 2 2h2c0-1.858-1.28-3.411-3-3.858v-2.142h-2v2h-3v4c0 2.206 1.794 4 4 4 1.103 0 2 .897 2 2v2h-2c-1.103 0-2-.897-2-2h-2c0 1.858 1.28 3.411 3 3.858v2.142h2v-2h3v-4c0-2.206-1.794-4-4-4-1.103 0-2-.897-2-2v-2z"/><path d="m39 31h2v2h-2z"/><path d="m23 31h2v2h-2z"/><path d="m61 32c-.732 0-1.409.212-2 .556v-8.556c0-1.654-1.346-3-3-3-.395 0-.77.081-1.116.22-.345-1.275-1.501-2.22-2.884-2.22-1.654 0-3 1.346-3 3v1.566c-3.114-6.251-9.555-10.566-17-10.566-4.2 0-8.073 1.387-11.222 3.703l-.778-1.036v-14.667h-16v12.667l-2 2.667c-.645.86-1 1.925-1 3v12.666h2c.732 0 1.409-.212 2-.556v8.556c0 1.654 1.346 3 3 3 .395 0 .77-.081 1.116-.22.345 1.275 1.501 2.22 2.884 2.22 1.654 0 3-1.346 3-3v-1.566c3.114 6.251 9.555 10.566 17 10.566 4.2 0 8.073-1.387 11.222-3.703l.778 1.036v14.667h16v-12.667l2-2.667c.645-.86 1-1.925 1-3v-12.666zm-48 10c0 .551-.449 1-1 1s-1-.449-1-1v-2-7-1h-2v1 7c0 .551-.449 1-1 1s-1-.449-1-1v-12-2-1.382l.979-.489c1.83-.916 3.165-2.579 3.661-4.563l.331-1.323-1.94-.485-.332 1.322c-.354 1.418-1.308 2.606-2.615 3.26l-2.084 1.042v2.618 2c0 1.103-.897 2-2 2v-10.667c0-.645.213-1.285.6-1.8l2.4-3.2v-11.333h12v13.333l1.23 1.639c-3.817 3.478-6.23 8.47-6.23 14.028zm2-10c0-9.374 7.626-17 17-17s17 7.626 17 17-7.626 17-17 17-17-7.626-17-17zm46 12.667c0 .645-.213 1.284-.6 1.8l-2.4 3.2v11.333h-12v-13.333l-1.23-1.639c3.817-3.478 6.23-8.47 6.23-14.028v-10c0-.551.449-1 1-1s1 .449 1 1v2 7 1h2v-1-7c0-.551.449-1 1-1s1 .449 1 1v12 2 1.382l-.979.489c-1.83.916-3.165 2.579-3.661 4.563l-.331 1.323 1.94.485.331-1.323c.354-1.418 1.308-2.606 2.615-3.26l2.085-1.041v-2.618-2c0-1.103.897-2 2-2z"/><path d="m48.278 11.725c-.569-.458-1.162-.895-1.763-1.3l-1.118 1.658c.555.374 1.103.778 1.628 1.2z"/><path d="m25 11c1.531 0 2.783-1.157 2.964-2.64 5.269-.886 10.866.01 15.556 2.58l.961-1.754c-5.109-2.801-11.209-3.769-16.949-2.78-.532-.842-1.465-1.406-2.532-1.406-1.654 0-3 1.346-3 3s1.346 3 3 3zm0-4c.551 0 1 .449 1 1s-.449 1-1 1-1-.449-1-1 .449-1 1-1z"/><path d="m15.722 52.275c.569.458 1.162.895 1.763 1.3l1.118-1.658c-.555-.374-1.103-.778-1.628-1.2z"/><path d="m39 53c-1.531 0-2.783 1.157-2.964 2.64-5.269.886-10.867-.009-15.556-2.579l-.961 1.754c3.803 2.083 8.118 3.185 12.481 3.185 1.502 0 3.003-.137 4.476-.392.533.834 1.462 1.392 2.524 1.392 1.654 0 3-1.346 3-3s-1.346-3-3-3zm0 4c-.551 0-1-.449-1-1s.449-1 1-1 1 .449 1 1-.449 1-1 1z"/></svg>